<?xml version="1.0" encoding="utf-8"?>
<!-- Generator: Adobe Illustrator 27.9.0, SVG Export Plug-In . SVG Version: 6.00 Build 0)  -->
<svg version="1.1" id="Layer_1" xmlns="http://www.w3.org/2000/svg" xmlns:xlink="http://www.w3.org/1999/xlink" x="0px" y="0px"
	 viewBox="0 0 512 512" style="enable-background:new 0 0 512 512;" xml:space="preserve">
<style type="text/css">
	.st0{fill:#FFFFFF;}
</style>
<g>
	<path class="st0" d="M256.1,469.1c-31.8,0-63.7,0.3-95.5-0.1c-24.2-0.3-47.3-5.7-67.9-18.9c-27.9-17.9-42.4-44.4-47.6-76.4
		c-1.6-10-2.2-20.2-2.2-30.3c-0.2-58.3,0-116.7-0.1-175c0-20.7,2.5-40.9,10.9-60C68.8,73.3,96.2,53.4,133,46
		c10.1-2,20.5-3.1,30.7-3.2c62-0.3,124-0.2,186-0.1c21.1,0,41.4,4,60.3,13.7c33.4,17,50.8,45.4,56.9,81.5
		c1.7,10.1,2.3,20.5,2.3,30.8c0.2,58.2,0,116.3,0.1,174.5c0,20.7-2.5,40.9-10.8,60c-16.1,37.2-45.6,57-84.7,63.5
		c-10.3,1.7-20.9,2.2-31.3,2.3c-28.8,0.3-57.7,0.1-86.5,0.1C256.1,469.2,256.1,469.2,256.1,469.1z M319.1,205.1
		c17.8,0,35.7,0,53.5,0c2.3,0,4.7-0.1,6.9-0.7c7.5-2.2,12.2-9.8,11-17.4c-1.3-8.5-7.9-13.9-17.4-13.9c-36.2-0.1-72.3-0.1-108.5,0
		c-10.6,0-17.8,6.6-17.9,16c0,9.5,7.1,15.9,17.8,15.9C282.7,205.1,300.9,205.1,319.1,205.1z M318.1,354.5c18.3,0,36.6,0.1,55,0
		c10.3,0,17.5-6.5,17.7-15.7c0.2-9.2-6.9-16.2-17.1-16.2c-36.6-0.1-73.3-0.1-109.9,0.1c-3,0-6.3,0.9-9,2.3
		c-6.3,3.4-9.1,10.6-7.4,17.5c1.7,7,8.2,12,16.4,12C281.8,354.6,299.9,354.5,318.1,354.5z M153.5,182.5c-1.8-1.7-3.3-3.2-4.9-4.7
		c-7-6.3-16.6-6.1-22.9,0.5c-6.2,6.5-6,15.6,0.6,22.4c4.4,4.6,8.9,9,13.4,13.4c9.6,9.6,17.7,9.6,27.5-0.1
		c12.1-12.1,24.3-24.3,36.4-36.4c3.3-3.3,6.8-6.4,9.8-10c8.2-9.8,3-23.9-9.6-26.1c-5.9-1-10.7,1.3-14.8,5.4
		C177.3,158.7,165.5,170.5,153.5,182.5z M153,332.4c-1.7-2.1-2.9-3.9-4.5-5.4c-6.7-6.1-16.4-5.8-22.5,0.4
		c-6.3,6.4-6.2,15.6,0.3,22.4c5.1,5.3,10.3,10.4,15.5,15.6c6.9,6.8,16.2,6.9,23.2,0.2c4.6-4.4,9-8.9,13.5-13.4
		c11.3-11.3,22.7-22.5,33.9-34c8.9-9.1,5.5-23.6-6.3-26.9c-6.5-1.8-12.1-0.1-16.8,4.8C177.5,308,165.6,319.7,153,332.4z"/>
</g>
</svg>
